# Blender v3.1.2 OBJ File: 'axes.blend'
# www.blender.org
mtllib axes.mtl
o Cube_Cube.001
v 1.000000 1.000000 0.008900
v 1.000000 1.000000 2.008900
v 1.000000 -1.000000 0.008900
v 1.000000 -1.000000 2.008900
v -1.000000 1.000000 0.008900
v -1.000000 1.000000 2.008900
v -1.000000 -1.000000 0.008900
v -1.000000 -1.000000 2.008900
v 1.000000 1.000000 4.794092
v 1.000000 -1.000000 4.794092
v -1.000000 1.000000 4.794092
v -1.000000 -1.000000 4.794092
v 1.000000 1.000000 7.759404
v 1.000000 -1.000000 7.759404
v -1.000000 1.000000 7.759404
v -1.000000 -1.000000 7.759404
v 1.000000 -6.913846 0.008900
v 1.000000 -6.913846 2.008900
v -1.000000 -6.913846 0.008900
v -1.000000 -6.913846 2.008900
v -6.946618 1.000000 0.008900
v -6.946618 1.000000 2.008900
v -6.946618 -1.000000 0.008900
v -6.946618 -1.000000 2.008900
v -14.050457 1.000000 0.008900
v -14.050457 1.000000 2.008900
v -14.050457 -1.000000 0.008900
v -14.050457 -1.000000 2.008900
v 1.000000 -13.128290 0.008900
v 1.000000 -13.128290 2.008900
v -1.000000 -13.128290 0.008900
v -1.000000 -13.128290 2.008900
v 1.000000 1.000000 13.994762
v 1.000000 -1.000000 13.994762
v -1.000000 1.000000 13.994762
v -1.000000 -1.000000 13.994762
vt 0.375000 0.000000
vt 0.625000 0.000000
vt 0.625000 0.250000
vt 0.375000 0.250000
vt 0.625000 0.500000
vt 0.375000 0.500000
vt 0.375000 0.500000
vt 0.625000 0.500000
vt 0.625000 0.500000
vt 0.375000 0.500000
vt 0.375000 0.750000
vt 0.625000 0.750000
vt 0.625000 1.000000
vt 0.375000 1.000000
vt 0.125000 0.500000
vt 0.125000 0.750000
vt 0.625000 0.000000
vt 0.625000 0.250000
vt 0.625000 1.000000
vt 0.625000 0.750000
vt 0.625000 0.750000
vt 0.625000 1.000000
vt 0.625000 0.500000
vt 0.625000 0.500000
vt 0.625000 0.500000
vt 0.625000 0.750000
vt 0.625000 0.250000
vt 0.625000 0.000000
vt 0.375000 0.250000
vt 0.625000 0.250000
vt 0.625000 0.250000
vt 0.375000 0.250000
vt 0.125000 0.500000
vt 0.625000 0.750000
vt 0.375000 0.750000
vt 0.375000 0.750000
vt 0.625000 0.750000
vt 0.375000 0.500000
vt 0.625000 0.500000
vt 0.625000 0.500000
vt 0.375000 0.500000
vt 0.125000 0.500000
vt 0.875000 0.500000
vt 0.875000 0.750000
vt 0.625000 0.000000
vt 0.625000 0.250000
vt 0.625000 1.000000
vn 1.0000 0.0000 0.0000
vn -1.0000 0.0000 0.0000
vn 0.0000 -1.0000 0.0000
vn 0.0000 1.0000 0.0000
vn 0.0000 0.0000 -1.0000
vn 0.0000 0.0000 1.0000
usemtl None
s off
f 1/1/1 2/2/1 4/3/1 3/4/1
f 8/5/2 7/6/2 19/7/2 20/8/2
f 7/6/3 8/5/3 24/9/3 23/10/3
f 5/11/4 6/12/4 2/13/4 1/14/4
f 3/15/5 7/6/5 5/11/5 1/16/5
f 4/3/1 2/2/1 9/17/1 10/18/1
f 9/19/4 11/20/4 15/21/4 13/22/4
f 2/13/4 6/12/4 11/20/4 9/19/4
f 8/5/3 4/3/3 10/18/3 12/23/3
f 6/12/2 8/5/2 12/23/2 11/20/2
f 15/21/2 16/24/2 36/25/2 35/26/2
f 12/23/3 10/18/3 14/27/3 16/24/3
f 11/20/2 12/23/2 16/24/2 15/21/2
f 10/18/1 9/17/1 13/28/1 14/27/1
f 17/29/1 18/30/1 30/31/1 29/32/1
f 7/6/5 3/15/5 17/33/5 19/7/5
f 4/3/6 8/5/6 20/8/6 18/30/6
f 3/4/1 4/3/1 18/30/1 17/29/1
f 22/34/4 21/35/4 25/36/4 26/37/4
f 6/12/4 5/11/4 21/35/4 22/34/4
f 5/11/5 7/6/5 23/10/5 21/35/5
f 8/5/6 6/12/6 22/34/6 24/9/6
f 27/38/2 28/39/2 26/37/2 25/36/2
f 21/35/5 23/10/5 27/38/5 25/36/5
f 24/9/6 22/34/6 26/37/6 28/39/6
f 23/10/3 24/9/3 28/39/3 27/38/3
f 29/32/3 30/31/3 32/40/3 31/41/3
f 20/8/2 19/7/2 31/41/2 32/40/2
f 19/7/5 17/33/5 29/42/5 31/41/5
f 18/30/6 20/8/6 32/40/6 30/31/6
f 36/25/6 34/43/6 33/44/6 35/26/6
f 14/27/1 13/28/1 33/45/1 34/46/1
f 13/22/4 15/21/4 35/26/4 33/47/4
f 16/24/3 14/27/3 34/46/3 36/25/3
