# Blender v3.1.2 OBJ File: 'stick.blend'
# www.blender.org
mtllib stick.mtl
o Cylinder
v 0.025419 0.183421 6.465080
v 0.155810 0.129411 6.465080
v 0.209821 -0.000981 6.465080
v 0.155811 -0.131372 6.465080
v 0.025419 -0.185383 6.465080
v -0.104973 -0.131373 6.465080
v -0.158983 -0.000981 6.465080
v -0.104973 0.129411 6.465080
v 0.025419 0.161615 0.001011
v 0.025419 0.183421 0.354113
v 0.140391 0.113992 0.001011
v 0.155810 0.129411 0.354113
v 0.188015 -0.000981 0.001011
v 0.209821 -0.000981 0.354113
v 0.140392 -0.115953 0.001011
v 0.155811 -0.131372 0.354113
v 0.025419 -0.163577 0.001011
v 0.025419 -0.185383 0.354113
v -0.089554 -0.115954 0.001011
v -0.104973 -0.131373 0.354113
v -0.137177 -0.000981 0.001011
v -0.158983 -0.000981 0.354113
v -0.089554 0.113992 0.001011
v -0.104973 0.129411 0.354113
vt 0.125000 0.527313
vt 0.125000 1.000000
vt 0.000000 1.000000
vt 0.000000 0.527313
vt 0.750000 0.527313
vt 0.750000 1.000000
vt 0.625000 1.000000
vt 0.625000 0.527313
vt 0.500000 1.000000
vt 0.500000 0.527313
vt 0.375000 1.000000
vt 0.375000 0.527313
vt 0.250000 1.000000
vt 0.250000 0.527313
vt 0.419706 0.419706
vt 0.250000 0.490000
vt 0.080294 0.419706
vt 0.010000 0.250000
vt 0.080294 0.080294
vt 0.250000 0.010000
vt 0.419706 0.080294
vt 0.490000 0.250000
vt 0.875000 0.527313
vt 0.875000 1.000000
vt 1.000000 0.527313
vt 1.000000 1.000000
vt 0.882391 0.500000
vt 0.992609 0.500000
vt 0.757391 0.500000
vt 0.867609 0.500000
vt 0.632391 0.500000
vt 0.742609 0.500000
vt 0.507391 0.500000
vt 0.617609 0.500000
vt 0.382391 0.500000
vt 0.492609 0.500000
vt 0.257391 0.500000
vt 0.367609 0.500000
vt 0.132391 0.500000
vt 0.242609 0.500000
vt 0.007391 0.500000
vt 0.117609 0.500000
vt 0.750000 0.461619
vt 0.899637 0.399637
vt 0.961619 0.250000
vt 0.899638 0.100362
vt 0.750000 0.038380
vt 0.600362 0.100362
vt 0.538381 0.250000
vt 0.600362 0.399637
vn -0.3827 0.9239 0.0000
vn 0.9239 -0.3827 0.0000
vn 0.3827 -0.9239 0.0000
vn -0.3827 -0.9239 0.0000
vn -0.9239 -0.3827 0.0000
vn -0.9239 0.3827 0.0000
vn 0.0000 0.0000 1.0000
vn 0.9239 0.3827 0.0000
vn 0.3827 0.9239 0.0000
vn 0.3821 0.9224 -0.0570
vn 0.9224 0.3821 -0.0570
vn 0.9224 -0.3821 -0.0570
vn 0.3821 -0.9224 -0.0570
vn -0.3821 -0.9224 -0.0570
vn -0.9224 -0.3821 -0.0570
vn -0.9224 0.3821 -0.0570
vn -0.3821 0.9224 -0.0570
vn -0.0000 0.0000 -1.0000
usemtl None
s off
f 24/1/1 8/2/1 1/3/1 10/4/1
f 14/5/2 3/6/2 4/7/2 16/8/2
f 16/8/3 4/7/3 5/9/3 18/10/3
f 18/10/4 5/9/4 6/11/4 20/12/4
f 20/12/5 6/11/5 7/13/5 22/14/5
f 22/14/6 7/13/6 8/2/6 24/1/6
f 2/15/7 1/16/7 8/17/7 7/18/7 6/19/7 5/20/7 4/21/7 3/22/7
f 12/23/8 2/24/8 3/6/8 14/5/8
f 10/25/9 1/26/9 2/24/9 12/23/9
f 10/25/10 12/23/10 11/27/10 9/28/10
f 12/23/11 14/5/11 13/29/11 11/30/11
f 14/5/12 16/8/12 15/31/12 13/32/12
f 16/8/13 18/10/13 17/33/13 15/34/13
f 18/10/14 20/12/14 19/35/14 17/36/14
f 20/12/15 22/14/15 21/37/15 19/38/15
f 22/14/16 24/1/16 23/39/16 21/40/16
f 24/1/17 10/4/17 9/41/17 23/42/17
f 9/43/18 11/44/18 13/45/18 15/46/18 17/47/18 19/48/18 21/49/18 23/50/18
o Cylinder.001
v 0.020421 0.134194 6.292363
v 0.122773 0.094602 6.318862
v 0.165169 -0.000980 6.329839
v 0.122773 -0.096563 6.318862
v 0.020421 -0.136155 6.292363
v -0.081932 -0.096563 6.265863
v -0.124328 -0.000981 6.254887
v -0.081932 0.094602 6.265863
v -1.041987 0.065657 10.395813
v -0.793156 0.134194 9.434723
v -0.991530 0.046139 10.408876
v -0.690803 0.094602 9.461224
v -0.970630 -0.000981 10.414288
v -0.648407 -0.000981 9.472199
v -0.991530 -0.048101 10.408876
v -0.690803 -0.096564 9.461224
v -1.041987 -0.067619 10.395813
v -0.793155 -0.136156 9.434723
v -1.092445 -0.048101 10.382749
v -0.895508 -0.096564 9.408224
v -1.113345 -0.000981 10.377337
v -0.937904 -0.000981 9.397247
v -1.092445 0.046139 10.382749
v -0.895508 0.094602 9.408224
vt 0.125000 0.500000
vt 0.125000 0.882893
vt 0.000000 0.882893
vt 0.000000 0.500000
vt 0.750000 0.500000
vt 0.750000 0.882893
vt 0.625000 0.882893
vt 0.625000 0.500000
vt 0.500000 0.882893
vt 0.500000 0.500000
vt 0.375000 0.882893
vt 0.375000 0.500000
vt 0.250000 0.882893
vt 0.250000 0.500000
vt 1.000000 0.500000
vt 1.000000 0.882893
vt 0.875000 0.882893
vt 0.875000 0.500000
vt 0.750000 0.490000
vt 0.919706 0.419706
vt 0.990000 0.250000
vt 0.919706 0.080294
vt 0.750000 0.010000
vt 0.580294 0.080294
vt 0.510000 0.250000
vt 0.580294 0.419706
vt 0.968311 1.000000
vt 0.906689 1.000000
vt 0.843311 1.000000
vt 0.781689 1.000000
vt 0.718311 1.000000
vt 0.656689 1.000000
vt 0.593311 1.000000
vt 0.531689 1.000000
vt 0.468311 1.000000
vt 0.406689 1.000000
vt 0.343311 1.000000
vt 0.281689 1.000000
vt 0.218311 1.000000
vt 0.156689 1.000000
vt 0.093311 1.000000
vt 0.031689 1.000000
vt 0.333661 0.333661
vt 0.250000 0.368314
vt 0.166339 0.333661
vt 0.131686 0.250000
vt 0.166339 0.166339
vt 0.250000 0.131686
vt 0.333661 0.166339
vt 0.368314 0.250000
vn -0.3395 0.9365 -0.0879
vn 0.8801 -0.4165 0.2279
vn 0.3395 -0.9365 0.0879
vn -0.3395 -0.9365 -0.0879
vn -0.8801 -0.4165 -0.2279
vn -0.8801 0.4165 -0.2279
vn 0.3395 0.9365 0.0879
vn 0.8801 0.4165 0.2279
vn 0.2506 0.0000 -0.9681
vn 0.3226 0.9345 0.1502
vn 0.8606 0.4155 0.2944
vn 0.8606 -0.4155 0.2944
vn 0.3226 -0.9345 0.1502
vn -0.3550 -0.9345 -0.0253
vn -0.8953 -0.4155 -0.1603
vn -0.8953 0.4155 -0.1603
vn -0.3550 0.9345 -0.0253
vn -0.2506 -0.0000 0.9681
usemtl None
s off
f 32/51/19 48/52/19 34/53/19 25/54/19
f 27/55/20 38/56/20 40/57/20 28/58/20
f 28/58/21 40/57/21 42/59/21 29/60/21
f 29/60/22 42/59/22 44/61/22 30/62/22
f 30/62/23 44/61/23 46/63/23 31/64/23
f 31/64/24 46/63/24 48/52/24 32/51/24
f 25/65/25 34/66/25 36/67/25 26/68/25
f 26/68/26 36/67/26 38/56/26 27/55/26
f 25/69/27 26/70/27 27/71/27 28/72/27 29/73/27 30/74/27 31/75/27 32/76/27
f 36/67/28 34/66/28 33/77/28 35/78/28
f 38/56/29 36/67/29 35/79/29 37/80/29
f 40/57/30 38/56/30 37/81/30 39/82/30
f 42/59/31 40/57/31 39/83/31 41/84/31
f 44/61/32 42/59/32 41/85/32 43/86/32
f 46/63/33 44/61/33 43/87/33 45/88/33
f 48/52/34 46/63/34 45/89/34 47/90/34
f 34/53/35 48/52/35 47/91/35 33/92/35
f 35/93/36 33/94/36 47/95/36 45/96/36 43/97/36 41/98/36 39/99/36 37/100/36
o Cylinder.002
v 0.036752 0.112331 6.394017
v 0.147588 0.072564 6.337780
v 0.193497 -0.023444 6.314486
v 0.147588 -0.119452 6.337780
v 0.036753 -0.159219 6.394017
v -0.074083 -0.119452 6.450254
v -0.119993 -0.023444 6.473548
v -0.074083 0.072564 6.450254
v 0.539178 0.069862 7.384227
v 0.466581 0.112332 7.241150
v 0.615344 0.042534 7.345581
v 0.577417 0.072564 7.184913
v 0.646894 -0.023444 7.329573
v 0.623326 -0.023444 7.161619
v 0.615345 -0.089421 7.345581
v 0.577417 -0.119451 7.184913
v 0.539178 -0.116749 7.384227
v 0.466581 -0.159219 7.241150
v 0.463011 -0.089421 7.422873
v 0.355746 -0.119452 7.297387
v 0.431461 -0.023444 7.438881
v 0.309836 -0.023444 7.320681
v 0.463011 0.042533 7.422873
v 0.355746 0.072564 7.297387
vt 0.125000 0.500000
vt 0.125000 0.927754
vt 0.000000 0.927754
vt 0.000000 0.500000
vt 0.750000 0.500000
vt 0.750000 0.927754
vt 0.625000 0.927754
vt 0.625000 0.500000
vt 0.500000 0.927754
vt 0.500000 0.500000
vt 0.375000 0.927754
vt 0.375000 0.500000
vt 0.250000 0.927754
vt 0.250000 0.500000
vt 1.000000 0.500000
vt 1.000000 0.927754
vt 0.875000 0.927754
vt 0.875000 0.500000
vt 0.750000 0.490000
vt 0.919706 0.419706
vt 0.990000 0.250000
vt 0.919706 0.080294
vt 0.750000 0.010000
vt 0.580294 0.080294
vt 0.510000 0.250000
vt 0.580294 0.419706
vt 0.980450 1.000000
vt 0.894550 1.000000
vt 0.855450 1.000000
vt 0.769550 1.000000
vt 0.730450 1.000000
vt 0.644550 1.000000
vt 0.605450 1.000000
vt 0.519550 1.000000
vt 0.480450 1.000000
vt 0.394550 1.000000
vt 0.355450 1.000000
vt 0.269550 1.000000
vt 0.230450 1.000000
vt 0.144550 1.000000
vt 0.105450 1.000000
vt 0.019550 1.000000
vt 0.366623 0.366623
vt 0.250000 0.414930
vt 0.133377 0.366623
vt 0.085070 0.250000
vt 0.133377 0.133377
vt 0.250000 0.085070
vt 0.366623 0.133377
vt 0.414930 0.250000
vn -0.2718 0.9524 0.1379
vn 0.7859 -0.4726 -0.3988
vn 0.2718 -0.9524 -0.1379
vn -0.2718 -0.9524 0.1379
vn -0.7859 -0.4726 0.3988
vn -0.7859 0.4726 0.3988
vn 0.2718 0.9524 -0.1379
vn 0.7859 0.4726 -0.3988
vn -0.4525 -0.0000 -0.8918
vn 0.3741 0.9235 0.0843
vn 0.8832 0.4524 -0.1239
vn 0.8832 -0.4524 -0.1239
vn 0.3741 -0.9235 0.0843
vn -0.1529 -0.9235 0.3517
vn -0.6215 -0.4524 0.6396
vn -0.6215 0.4524 0.6396
vn -0.1529 0.9235 0.3517
vn 0.4525 0.0000 0.8918
usemtl None
s off
f 56/101/37 72/102/37 58/103/37 49/104/37
f 51/105/38 62/106/38 64/107/38 52/108/38
f 52/108/39 64/107/39 66/109/39 53/110/39
f 53/110/40 66/109/40 68/111/40 54/112/40
f 54/112/41 68/111/41 70/113/41 55/114/41
f 55/114/42 70/113/42 72/102/42 56/101/42
f 49/115/43 58/116/43 60/117/43 50/118/43
f 50/118/44 60/117/44 62/106/44 51/105/44
f 49/119/45 50/120/45 51/121/45 52/122/45 53/123/45 54/124/45 55/125/45 56/126/45
f 60/117/46 58/116/46 57/127/46 59/128/46
f 62/106/47 60/117/47 59/129/47 61/130/47
f 64/107/48 62/106/48 61/131/48 63/132/48
f 66/109/49 64/107/49 63/133/49 65/134/49
f 68/111/50 66/109/50 65/135/50 67/136/50
f 70/113/51 68/111/51 67/137/51 69/138/51
f 72/102/52 70/113/52 69/139/52 71/140/52
f 58/103/53 72/102/53 71/141/53 57/142/53
f 59/143/54 57/144/54 71/145/54 69/146/54 67/147/54 65/148/54 63/149/54 61/150/54
