# Blender v3.1.2 OBJ File: 'stones.blend'
# www.blender.org
mtllib stones.mtl
o Icosphere
v -5.579730 -3.014764 -0.103345
v -6.417175 -3.863383 0.929706
v -7.107332 -2.212088 -0.167930
v -5.423638 -1.697243 -0.499237
v -4.239260 -2.668902 -0.124217
v -4.841455 -3.882242 0.683643
v -6.637693 -2.347990 1.649012
v -5.699984 -1.428535 0.973284
v -4.522426 -1.580192 0.842955
v -4.024163 -2.608955 1.282516
v -5.453315 -3.319649 2.024032
v -5.282911 -1.950828 1.715856
vt 0.181819 0.000000
vt 0.272728 0.157461
vt 0.090910 0.157461
vt 0.363637 0.000000
vt 0.454546 0.157461
vt 0.909091 0.000000
vt 1.000000 0.157461
vt 0.818182 0.157461
vt 0.727273 0.000000
vt 0.636364 0.157461
vt 0.545455 0.000000
vt 0.363637 0.314921
vt 0.181819 0.314921
vt 0.909091 0.314921
vt 0.727273 0.314921
vt 0.545455 0.314921
vt 0.000000 0.314921
vt 0.272728 0.472382
vt 0.090910 0.472382
vt 0.818182 0.472382
vt 0.636364 0.472382
vt 0.454546 0.472382
vn -0.2898 -0.6109 -0.7368
vn -0.1155 -0.7196 -0.6848
vn -0.1040 -0.2749 -0.9558
vn 0.0610 -0.2939 -0.9539
vn 0.1416 -0.5963 -0.7901
vn 0.0526 -0.9120 0.4068
vn -0.9431 -0.2443 0.2255
vn -0.3255 0.9175 -0.2285
vn 0.6417 0.5959 -0.4828
vn 0.8592 -0.4997 -0.1101
vn -0.5680 -0.4189 0.7084
vn -0.6015 0.7700 0.2131
vn 0.1088 0.9813 -0.1586
vn 0.9135 0.3759 -0.1557
vn 0.5815 -0.6206 0.5260
vn -0.1156 0.2318 0.9659
vn -0.2439 0.7234 0.6459
vn 0.1650 0.8479 0.5038
vn 0.5113 0.5350 0.6726
vn 0.3931 0.1551 0.9063
usemtl None
s off
f 1/1/1 2/2/1 3/3/1
f 2/2/2 1/4/2 6/5/2
f 1/6/3 3/7/3 4/8/3
f 1/9/4 4/8/4 5/10/4
f 1/11/5 5/10/5 6/5/5
f 2/2/6 6/5/6 11/12/6
f 3/3/7 2/2/7 7/13/7
f 4/8/8 3/7/8 8/14/8
f 5/10/9 4/8/9 9/15/9
f 6/5/10 5/10/10 10/16/10
f 2/2/11 11/12/11 7/13/11
f 3/3/12 7/13/12 8/17/12
f 4/8/13 8/14/13 9/15/13
f 5/10/14 9/15/14 10/16/14
f 6/5/15 10/16/15 11/12/15
f 7/13/16 11/12/16 12/18/16
f 8/17/17 7/13/17 12/19/17
f 9/15/18 8/14/18 12/20/18
f 10/16/19 9/15/19 12/21/19
f 11/12/20 10/16/20 12/22/20
o Icosphere.001
v 2.843694 -4.325091 -0.250431
v 2.130809 -5.690188 0.091575
v 1.197333 -3.821275 -0.117420
v 2.768189 -2.985580 0.091575
v 4.094300 -3.839363 0.091575
v 3.692108 -5.364391 0.091575
v 1.593088 -4.810820 1.433220
v 2.373167 -3.556780 1.446041
v 3.563207 -3.457260 1.423052
v 4.223913 -4.486109 1.353984
v 2.919198 -5.664602 1.433220
v 2.843694 -4.325091 1.877844
vt 0.181819 0.000000
vt 0.272728 0.157461
vt 0.090910 0.157461
vt 0.363637 0.000000
vt 0.454546 0.157461
vt 0.909091 0.000000
vt 1.000000 0.157461
vt 0.818182 0.157461
vt 0.727273 0.000000
vt 0.636364 0.157461
vt 0.545455 0.000000
vt 0.363637 0.314921
vt 0.181819 0.314921
vt 0.909091 0.314921
vt 0.727273 0.314921
vt 0.545455 0.314921
vt 0.000000 0.314921
vt 0.272728 0.472382
vt 0.090910 0.472382
vt 0.818182 0.472382
vt 0.636364 0.472382
vt 0.454546 0.472382
vn -0.1324 -0.1752 -0.9756
vn 0.0564 -0.2702 -0.9611
vn -0.0026 0.2472 -0.9689
vn 0.1627 0.2527 -0.9538
vn 0.2906 -0.0766 -0.9538
vn 0.2032 -0.9739 -0.1008
vn -0.8902 -0.4515 -0.0609
vn -0.4808 0.8493 0.2179
vn 0.5412 0.8405 -0.0254
vn 0.9424 -0.2485 -0.2241
vn -0.5134 -0.7975 0.3169
vn -0.7456 0.4589 0.4831
vn -0.0703 0.9263 0.3701
vn 0.8329 0.5226 0.1822
vn 0.6612 -0.7171 0.2204
vn -0.2052 -0.3187 0.9254
vn -0.4078 0.2447 0.8797
vn -0.0231 0.4790 0.8775
vn 0.3671 0.1744 0.9137
vn 0.3112 -0.2835 0.9071
usemtl None
s off
f 13/23/21 14/24/21 15/25/21
f 14/24/22 13/26/22 18/27/22
f 13/28/23 15/29/23 16/30/23
f 13/31/24 16/30/24 17/32/24
f 13/33/25 17/32/25 18/27/25
f 14/24/26 18/27/26 23/34/26
f 15/25/27 14/24/27 19/35/27
f 16/30/28 15/29/28 20/36/28
f 17/32/29 16/30/29 21/37/29
f 18/27/30 17/32/30 22/38/30
f 14/24/31 23/34/31 19/35/31
f 15/25/32 19/35/32 20/39/32
f 16/30/33 20/36/33 21/37/33
f 17/32/34 21/37/34 22/38/34
f 18/27/35 22/38/35 23/34/35
f 19/35/36 23/34/36 24/40/36
f 20/39/37 19/35/37 24/41/37
f 21/37/38 20/36/38 24/42/38
f 22/38/39 21/37/39 24/43/39
f 23/34/40 22/38/40 24/44/40
o Icosphere.002
v -2.797524 -4.318517 -0.224028
v -3.072851 -2.874776 0.349096
v -1.206116 -3.828645 0.233654
v -2.003997 -5.421306 0.042672
v -3.562507 -5.472125 -0.193924
v -4.130979 -4.012281 -0.011803
v -2.320359 -3.523107 1.718719
v -2.213984 -4.977274 1.483377
v -3.104079 -5.719744 1.195113
v -4.222953 -5.244238 1.047300
v -3.878869 -3.573926 1.482123
v -3.099922 -4.694861 1.848766
vt 0.181819 0.000000
vt 0.272728 0.157461
vt 0.090910 0.157461
vt 0.363637 0.000000
vt 0.454546 0.157461
vt 0.909091 0.000000
vt 1.000000 0.157461
vt 0.818182 0.157461
vt 0.727273 0.000000
vt 0.636364 0.157461
vt 0.545455 0.000000
vt 0.363637 0.314921
vt 0.181819 0.314921
vt 0.909091 0.314921
vt 0.727273 0.314921
vt 0.545455 0.314921
vt 0.000000 0.314921
vt 0.272728 0.472382
vt 0.090910 0.472382
vt 0.818182 0.472382
vt 0.636364 0.472382
vt 0.454546 0.472382
vn 0.1422 0.3885 -0.9104
vn -0.0662 0.3572 -0.9317
vn 0.2841 -0.0274 -0.9584
vn 0.1529 -0.1270 -0.9800
vn -0.1415 0.0681 -0.9876
vn -0.7165 0.6927 -0.0823
vn 0.4569 0.8745 0.1629
vn 0.8491 -0.4571 0.2646
vn 0.0615 -0.9789 -0.1948
vn -0.8666 -0.2865 -0.4085
vn -0.1000 0.8770 0.4700
vn 0.7953 -0.0397 0.6049
vn 0.5442 -0.7761 0.3185
vn -0.3868 -0.9215 -0.0366
vn -0.9784 0.1717 0.1147
vn -0.1534 0.2093 0.9657
vn 0.3438 -0.1255 0.9306
vn 0.1734 -0.5301 0.8300
vn -0.3215 -0.5082 0.7989
vn -0.5432 -0.1050 0.8330
usemtl None
s off
f 25/45/41 26/46/41 27/47/41
f 26/46/42 25/48/42 30/49/42
f 25/50/43 27/51/43 28/52/43
f 25/53/44 28/52/44 29/54/44
f 25/55/45 29/54/45 30/49/45
f 26/46/46 30/49/46 35/56/46
f 27/47/47 26/46/47 31/57/47
f 28/52/48 27/51/48 32/58/48
f 29/54/49 28/52/49 33/59/49
f 30/49/50 29/54/50 34/60/50
f 26/46/51 35/56/51 31/57/51
f 27/47/52 31/57/52 32/61/52
f 28/52/53 32/58/53 33/59/53
f 29/54/54 33/59/54 34/60/54
f 30/49/55 34/60/55 35/56/55
f 31/57/56 35/56/56 36/62/56
f 32/61/57 31/57/57 36/63/57
f 33/59/58 32/58/58 36/64/58
f 34/60/59 33/59/59 36/65/59
f 35/56/60 34/60/60 36/66/60
o Icosphere.003
v 0.599466 -4.968941 -0.047822
v -0.712676 -4.217995 -0.498406
v 0.904699 -3.374578 0.541133
v 1.475567 -5.002719 1.023749
v 0.805271 -6.272441 0.371045
v -0.429173 -5.787444 -0.482418
v -0.805271 -3.865506 1.153750
v 0.208257 -4.712037 1.815151
v 0.318027 -5.897685 1.721246
v -0.461403 -6.489679 0.985131
v -1.475567 -5.135228 0.501046
v -0.660203 -5.179142 1.654707
vt 0.181819 0.000000
vt 0.272728 0.157461
vt 0.090910 0.157461
vt 0.363637 0.000000
vt 0.454546 0.157461
vt 0.909091 0.000000
vt 1.000000 0.157461
vt 0.818182 0.157461
vt 0.727273 0.000000
vt 0.636364 0.157461
vt 0.545455 0.000000
vt 0.363637 0.314921
vt 0.181819 0.314921
vt 0.909091 0.314921
vt 0.727273 0.314921
vt 0.545455 0.314921
vt 0.000000 0.314921
vt 0.272728 0.472382
vt 0.090910 0.472382
vt 0.818182 0.472382
vt 0.636364 0.472382
vt 0.454546 0.472382
vn 0.4344 0.2378 -0.8688
vn 0.3518 0.0540 -0.9345
vn 0.7727 0.0845 -0.6291
vn 0.7703 -0.0816 -0.6324
vn 0.5066 -0.1902 -0.8409
vn -0.7225 -0.1374 -0.6776
vn -0.3397 0.9158 -0.2144
vn 0.5490 0.4086 0.7291
vn 0.6997 -0.5822 0.4141
vn -0.0550 -0.9002 -0.4320
vn -0.8372 0.5235 -0.1586
vn 0.0739 0.6674 0.7410
vn 0.5265 -0.0186 0.8500
vn 0.3245 -0.8747 0.3599
vn -0.6996 -0.6385 -0.3209
vn -0.8073 0.1303 0.5755
vn -0.3290 0.3046 0.8939
vn -0.1336 -0.0905 0.9869
vn -0.3953 -0.4648 0.7923
vn -0.7612 -0.3829 0.5234
usemtl None
s off
f 37/67/61 38/68/61 39/69/61
f 38/68/62 37/70/62 42/71/62
f 37/72/63 39/73/63 40/74/63
f 37/75/64 40/74/64 41/76/64
f 37/77/65 41/76/65 42/71/65
f 38/68/66 42/71/66 47/78/66
f 39/69/67 38/68/67 43/79/67
f 40/74/68 39/73/68 44/80/68
f 41/76/69 40/74/69 45/81/69
f 42/71/70 41/76/70 46/82/70
f 38/68/71 47/78/71 43/79/71
f 39/69/72 43/79/72 44/83/72
f 40/74/73 44/80/73 45/81/73
f 41/76/74 45/81/74 46/82/74
f 42/71/75 46/82/75 47/78/75
f 43/79/76 47/78/76 48/84/76
f 44/83/77 43/79/77 48/85/77
f 45/81/78 44/80/78 48/86/78
f 46/82/79 45/81/79 48/87/79
f 47/78/80 46/82/80 48/88/80
o Icosphere.004_Icosphere.008
v -5.557676 0.896606 -0.158757
v -6.164885 2.325545 -0.438208
v -4.183042 1.905799 0.113158
v -4.664764 0.284728 0.704535
v -6.120138 -0.239730 0.397383
v -6.938490 0.943759 -0.248470
v -5.596498 2.622552 1.127412
v -5.216232 1.309250 1.685926
v -5.904138 0.334796 1.747996
v -7.034885 0.399929 1.282161
v -7.051873 2.098094 0.820260
v -6.189422 1.516085 1.776882
vt 0.181819 0.000000
vt 0.272728 0.157461
vt 0.090910 0.157461
vt 0.363637 0.000000
vt 0.454546 0.157461
vt 0.909091 0.000000
vt 1.000000 0.157461
vt 0.818182 0.157461
vt 0.727273 0.000000
vt 0.636364 0.157461
vt 0.545455 0.000000
vt 0.363637 0.314921
vt 0.181819 0.314921
vt 0.909091 0.314921
vt 0.727273 0.314921
vt 0.545455 0.314921
vt 0.000000 0.314921
vt 0.272728 0.472382
vt 0.090910 0.472382
vt 0.818182 0.472382
vt 0.636364 0.472382
vt 0.454546 0.472382
vn 0.2510 -0.0820 -0.9645
vn 0.0582 -0.1677 -0.9841
vn 0.4639 -0.4220 -0.7789
vn 0.3570 -0.5472 -0.7571
vn 0.0422 -0.4560 -0.8890
vn -0.7884 0.3744 -0.4880
vn 0.2716 0.9227 -0.2736
vn 0.8441 -0.0563 0.5332
vn 0.2532 -0.9041 0.3441
vn -0.7148 -0.6436 -0.2737
vn -0.3271 0.9431 -0.0601
vn 0.6600 0.4477 0.6034
vn 0.5894 -0.3704 0.7179
vn -0.2204 -0.8844 0.4115
vn -0.9969 -0.0299 -0.0734
vn -0.3678 0.6094 0.7024
vn 0.1738 0.4276 0.8871
vn 0.0926 -0.0020 0.9957
vn -0.3840 -0.1151 0.9161
vn -0.6695 0.1887 0.7184
usemtl None
s off
f 49/89/81 50/90/81 51/91/81
f 50/90/82 49/92/82 54/93/82
f 49/94/83 51/95/83 52/96/83
f 49/97/84 52/96/84 53/98/84
f 49/99/85 53/98/85 54/93/85
f 50/90/86 54/93/86 59/100/86
f 51/91/87 50/90/87 55/101/87
f 52/96/88 51/95/88 56/102/88
f 53/98/89 52/96/89 57/103/89
f 54/93/90 53/98/90 58/104/90
f 50/90/91 59/100/91 55/101/91
f 51/91/92 55/101/92 56/105/92
f 52/96/93 56/102/93 57/103/93
f 53/98/94 57/103/94 58/104/94
f 54/93/95 58/104/95 59/100/95
f 55/101/96 59/100/96 60/106/96
f 56/105/97 55/101/97 60/107/97
f 57/103/98 56/102/98 60/108/98
f 58/104/99 57/103/99 60/109/99
f 59/100/100 58/104/100 60/110/100
o Icosphere.005_Icosphere.009
v -4.203648 4.313300 -0.233588
v -5.753625 4.333709 0.059352
v -4.558718 5.993454 -0.415344
v -3.077599 5.080562 0.011935
v -3.187513 3.531926 0.289711
v -4.717017 3.147591 0.309084
v -5.285505 5.456635 1.235084
v -3.812001 5.388705 1.309082
v -3.151502 4.409288 1.485467
v -3.732691 3.336480 1.590995
v -5.395420 3.907999 1.512860
v -4.272701 4.693598 1.859295
vt 0.181819 0.000000
vt 0.272728 0.157461
vt 0.090910 0.157461
vt 0.363637 0.000000
vt 0.454546 0.157461
vt 0.909091 0.000000
vt 1.000000 0.157461
vt 0.818182 0.157461
vt 0.727273 0.000000
vt 0.636364 0.157461
vt 0.545455 0.000000
vt 0.363637 0.314921
vt 0.181819 0.314921
vt 0.909091 0.314921
vt 0.727273 0.314921
vt 0.545455 0.314921
vt 0.000000 0.314921
vt 0.272728 0.472382
vt 0.090910 0.472382
vt 0.818182 0.472382
vt 0.636364 0.472382
vt 0.454546 0.472382
vn -0.1856 -0.1444 -0.9720
vn -0.1784 -0.3496 -0.9198
vn 0.2468 -0.0525 -0.9676
vn 0.3306 -0.1893 -0.9246
vn 0.1036 -0.4569 -0.8835
vn -0.7521 -0.6589 -0.0076
vn -0.8218 0.5382 -0.1868
vn 0.5056 0.8588 0.0822
vn 0.9975 -0.0673 0.0194
vn 0.2429 -0.9691 -0.0438
vn -0.9559 0.1162 0.2696
vn 0.0276 0.9470 0.3202
vn 0.7657 0.5700 0.2981
vn 0.8526 -0.4332 0.2922
vn -0.3173 -0.8722 0.3722
vn -0.4080 0.1892 0.8932
vn -0.0104 0.6248 0.7807
vn 0.3801 0.4060 0.8311
vn 0.2998 -0.0688 0.9515
vn -0.1281 -0.2412 0.9620
usemtl None
s off
f 61/111/101 62/112/101 63/113/101
f 62/112/102 61/114/102 66/115/102
f 61/116/103 63/117/103 64/118/103
f 61/119/104 64/118/104 65/120/104
f 61/121/105 65/120/105 66/115/105
f 62/112/106 66/115/106 71/122/106
f 63/113/107 62/112/107 67/123/107
f 64/118/108 63/117/108 68/124/108
f 65/120/109 64/118/109 69/125/109
f 66/115/110 65/120/110 70/126/110
f 62/112/111 71/122/111 67/123/111
f 63/113/112 67/123/112 68/127/112
f 64/118/113 68/124/113 69/125/113
f 65/120/114 69/125/114 70/126/114
f 66/115/115 70/126/115 71/122/115
f 67/123/116 71/122/116 72/128/116
f 68/127/117 67/123/117 72/129/117
f 69/125/118 68/124/118 72/130/118
f 70/126/119 69/125/119 72/131/119
f 71/122/120 70/126/120 72/132/120
o Icosphere.006_Icosphere.010
v -1.317085 5.750421 -0.250431
v -2.586950 4.879136 0.091575
v -2.534835 6.967556 -0.117420
v -0.755517 6.968875 0.091575
v 0.015252 5.592856 0.091575
v -1.055223 4.434601 0.091575
v -2.649422 5.907985 1.433220
v -1.372299 6.649670 1.446041
v -0.274591 6.179416 1.423052
v -0.173609 4.960866 1.353984
v -1.878653 4.531966 1.433220
v -1.317085 5.750421 1.877844
vt 0.181819 0.000000
vt 0.272728 0.157461
vt 0.090910 0.157461
vt 0.363637 0.000000
vt 0.454546 0.157461
vt 0.909091 0.000000
vt 1.000000 0.157461
vt 0.818182 0.157461
vt 0.727273 0.000000
vt 0.636364 0.157461
vt 0.545455 0.000000
vt 0.363637 0.314921
vt 0.181819 0.314921
vt 0.909091 0.314921
vt 0.727273 0.314921
vt 0.545455 0.314921
vt 0.000000 0.314921
vt 0.272728 0.472382
vt 0.090910 0.472382
vt 0.818182 0.472382
vt 0.636364 0.472382
vt 0.454546 0.472382
vn -0.1992 -0.0927 -0.9756
vn -0.0769 -0.2651 -0.9611
vn 0.1136 0.2196 -0.9689
vn 0.2622 0.1469 -0.9538
vn 0.2207 -0.2040 -0.9538
vn -0.2773 -0.9555 -0.1008
vn -0.9980 0.0188 -0.0609
vn -0.0263 0.9756 0.2179
vn 0.8722 0.4885 -0.0254
vn 0.7157 -0.6615 -0.2241
vn -0.8275 -0.4635 0.3169
vn -0.4433 0.7550 0.4831
vn 0.3724 0.8511 0.3701
vn 0.9807 0.0709 0.1822
vn 0.2476 -0.9435 0.2204
vn -0.3307 -0.1853 0.9254
vn -0.2454 0.4073 0.8797
vn 0.2043 0.4339 0.8775
vn 0.4061 -0.0181 0.9137
vn 0.1419 -0.3964 0.9071
usemtl None
s off
f 73/133/121 74/134/121 75/135/121
f 74/134/122 73/136/122 78/137/122
f 73/138/123 75/139/123 76/140/123
f 73/141/124 76/140/124 77/142/124
f 73/143/125 77/142/125 78/137/125
f 74/134/126 78/137/126 83/144/126
f 75/135/127 74/134/127 79/145/127
f 76/140/128 75/139/128 80/146/128
f 77/142/129 76/140/129 81/147/129
f 78/137/130 77/142/130 82/148/130
f 74/134/131 83/144/131 79/145/131
f 75/135/132 79/145/132 80/149/132
f 76/140/133 80/146/133 81/147/133
f 77/142/134 81/147/134 82/148/134
f 78/137/135 82/148/135 83/144/135
f 79/145/136 83/144/136 84/150/136
f 80/149/137 79/145/137 84/151/137
f 81/147/138 80/146/138 84/152/138
f 82/148/139 81/147/139 84/153/139
f 83/144/140 82/148/140 84/154/140
o Icosphere.007_Icosphere.011
v 2.034879 5.689476 -0.250431
v 0.520905 5.407383 0.091575
v 1.414666 7.295612 -0.117420
v 3.041946 6.575934 0.091575
v 3.189135 5.005631 0.091575
v 1.741188 4.380394 0.091575
v 0.880624 6.373321 1.433220
v 2.348727 6.533986 1.446041
v 3.161787 5.659324 1.423052
v 2.760419 4.504349 1.353984
v 1.027813 4.803018 1.433220
v 2.034879 5.689476 1.877844
vt 0.181819 0.000000
vt 0.272728 0.157461
vt 0.090910 0.157461
vt 0.363637 0.000000
vt 0.454546 0.157461
vt 0.909091 0.000000
vt 1.000000 0.157461
vt 0.818182 0.157461
vt 0.727273 0.000000
vt 0.636364 0.157461
vt 0.545455 0.000000
vt 0.363637 0.314921
vt 0.181819 0.314921
vt 0.909091 0.314921
vt 0.727273 0.314921
vt 0.545455 0.314921
vt 0.000000 0.314921
vt 0.272728 0.472382
vt 0.090910 0.472382
vt 0.818182 0.472382
vt 0.636364 0.472382
vt 0.454546 0.472382
vn -0.2196 -0.0040 -0.9756
vn -0.1778 -0.2112 -0.9611
vn 0.1929 0.1547 -0.9689
vn 0.2992 0.0280 -0.9538
vn 0.1191 -0.2759 -0.9538
vn -0.6406 -0.7612 -0.1009
vn -0.9048 0.4215 -0.0609
vn 0.3712 0.9026 0.2179
vn 0.9953 0.0933 -0.0254
vn 0.3863 -0.8947 -0.2241
vn -0.9443 -0.0885 0.3169
vn -0.0994 0.8699 0.4831
vn 0.6852 0.6273 0.3701
vn 0.9253 -0.3325 0.1822
vn -0.1559 -0.9629 0.2204
vn -0.3774 -0.0354 0.9254
vn -0.0593 0.4718 0.8797
vn 0.3625 0.3139 0.8775
vn 0.3639 -0.1811 0.9137
vn -0.0309 -0.4199 0.9071
usemtl None
s off
f 85/155/141 86/156/141 87/157/141
f 86/156/142 85/158/142 90/159/142
f 85/160/143 87/161/143 88/162/143
f 85/163/144 88/162/144 89/164/144
f 85/165/145 89/164/145 90/159/145
f 86/156/146 90/159/146 95/166/146
f 87/157/147 86/156/147 91/167/147
f 88/162/148 87/161/148 92/168/148
f 89/164/149 88/162/149 93/169/149
f 90/159/150 89/164/150 94/170/150
f 86/156/151 95/166/151 91/167/151
f 87/157/152 91/167/152 92/171/152
f 88/162/153 92/168/153 93/169/153
f 89/164/154 93/169/154 94/170/154
f 90/159/155 94/170/155 95/166/155
f 91/167/156 95/166/156 96/172/156
f 92/171/157 91/167/157 96/173/157
f 93/169/158 92/168/158 96/174/158
f 94/170/159 93/169/159 96/175/159
f 95/166/160 94/170/160 96/176/160
o Icosphere.008_Icosphere.012
v 4.838339 3.891604 -0.250431
v 6.368650 4.064356 0.091575
v 5.341729 2.245112 -0.117420
v 3.770272 3.079679 0.091575
v 3.736118 4.656494 0.091575
v 5.225189 5.176244 0.091575
v 5.940561 3.126715 1.433220
v 4.464715 3.071786 1.446041
v 3.716499 4.002524 1.423052
v 4.199691 5.125728 1.353984
v 5.906406 4.703530 1.433220
v 4.838339 3.891604 1.877844
vt 0.181819 0.000000
vt 0.272728 0.157461
vt 0.090910 0.157461
vt 0.363637 0.000000
vt 0.454546 0.157461
vt 0.909091 0.000000
vt 1.000000 0.157461
vt 0.818182 0.157461
vt 0.727273 0.000000
vt 0.636364 0.157461
vt 0.545455 0.000000
vt 0.363637 0.314921
vt 0.181819 0.314921
vt 0.909091 0.314921
vt 0.727273 0.314921
vt 0.545455 0.314921
vt 0.000000 0.314921
vt 0.272728 0.472382
vt 0.090910 0.472382
vt 0.818182 0.472382
vt 0.636364 0.472382
vt 0.454546 0.472382
vn 0.2194 -0.0117 -0.9756
vn 0.1925 0.1979 -0.9611
vn -0.2035 -0.1405 -0.9689
vn -0.3005 -0.0065 -0.9538
vn -0.0990 0.2837 -0.9538
vn 0.6936 0.7133 -0.1008
vn 0.8722 -0.4853 -0.0609
vn -0.4350 -0.8737 0.2179
vn -0.9994 -0.0216 -0.0254
vn -0.3212 0.9201 -0.2241
vn 0.9482 0.0205 0.3169
vn 0.0368 -0.8748 0.4831
vn -0.7285 -0.5765 0.3701
vn -0.8991 0.3980 0.1822
vn 0.2246 0.9492 0.2204
vn 0.3790 0.0082 0.9254
vn 0.0253 -0.4749 0.8797
vn -0.3841 -0.2871 0.8775
vn -0.3500 0.2067 0.9137
vn 0.0609 0.4166 0.9071
usemtl None
s off
f 97/177/161 98/178/161 99/179/161
f 98/178/162 97/180/162 102/181/162
f 97/182/163 99/183/163 100/184/163
f 97/185/164 100/184/164 101/186/164
f 97/187/165 101/186/165 102/181/165
f 98/178/166 102/181/166 107/188/166
f 99/179/167 98/178/167 103/189/167
f 100/184/168 99/183/168 104/190/168
f 101/186/169 100/184/169 105/191/169
f 102/181/170 101/186/170 106/192/170
f 98/178/171 107/188/171 103/189/171
f 99/179/172 103/189/172 104/193/172
f 100/184/173 104/190/173 105/191/173
f 101/186/174 105/191/174 106/192/174
f 102/181/175 106/192/175 107/188/175
f 103/189/176 107/188/176 108/194/176
f 104/193/177 103/189/177 108/195/177
f 105/191/178 104/190/178 108/196/178
f 106/192/179 105/191/179 108/197/179
f 107/188/180 106/192/180 108/198/180
o Icosphere.009_Icosphere.013
v 6.148653 0.539641 -0.250431
v 4.806797 -0.216081 0.091575
v 5.043162 1.859574 -0.117420
v 6.815643 1.703735 0.091575
v 7.461867 0.265017 0.091575
v 6.293275 -0.794165 0.091575
v 4.835439 0.814264 1.433220
v 6.173079 1.440252 1.446041
v 7.224962 0.874884 1.423052
v 7.217925 -0.347823 1.353984
v 5.481663 -0.624454 1.433220
v 6.148653 0.539641 1.877844
vt 0.181819 0.000000
vt 0.272728 0.157461
vt 0.090910 0.157461
vt 0.363637 0.000000
vt 0.454546 0.157461
vt 0.909091 0.000000
vt 1.000000 0.157461
vt 0.818182 0.157461
vt 0.727273 0.000000
vt 0.636364 0.157461
vt 0.545455 0.000000
vt 0.363637 0.314921
vt 0.181819 0.314921
vt 0.909091 0.314921
vt 0.727273 0.314921
vt 0.545455 0.314921
vt 0.000000 0.314921
vt 0.272728 0.472382
vt 0.090910 0.472382
vt 0.818182 0.472382
vt 0.636364 0.472382
vt 0.454546 0.472382
vn -0.2066 -0.0747 -0.9756
vn -0.1001 -0.2573 -0.9611
vn 0.1326 0.2087 -0.9689
vn 0.2741 0.1231 -0.9538
vn 0.2018 -0.2227 -0.9538
vn -0.3606 -0.9273 -0.1008
vn -0.9924 0.1069 -0.0609
vn 0.0599 0.9741 0.2179
vn 0.9119 0.4096 -0.0254
vn 0.6545 -0.7221 -0.2241
vn -0.8652 -0.3886 0.3169
vn -0.3749 0.7912 0.4831
vn 0.4461 0.8149 0.3701
vn 0.9831 -0.0160 0.1822
vn 0.1633 -0.9616 0.2204
vn -0.3458 -0.1553 0.9254
vn -0.2085 0.4274 0.8797
vn 0.2418 0.4142 0.8775
vn 0.4029 -0.0539 0.9137
vn 0.1063 -0.4074 0.9071
usemtl None
s off
f 109/199/181 110/200/181 111/201/181
f 110/200/182 109/202/182 114/203/182
f 109/204/183 111/205/183 112/206/183
f 109/207/184 112/206/184 113/208/184
f 109/209/185 113/208/185 114/203/185
f 110/200/186 114/203/186 119/210/186
f 111/201/187 110/200/187 115/211/187
f 112/206/188 111/205/188 116/212/188
f 113/208/189 112/206/189 117/213/189
f 114/203/190 113/208/190 118/214/190
f 110/200/191 119/210/191 115/211/191
f 111/201/192 115/211/192 116/215/192
f 112/206/193 116/212/193 117/213/193
f 113/208/194 117/213/194 118/214/194
f 114/203/195 118/214/195 119/210/195
f 115/211/196 119/210/196 120/216/196
f 116/215/197 115/211/197 120/217/197
f 117/213/198 116/212/198 120/218/198
f 118/214/199 117/213/199 120/219/199
f 119/210/200 118/214/200 120/220/200
o Icosphere.010_Icosphere.014
v 5.143064 -2.477127 -0.250431
v 5.975980 -1.181772 0.091575
v 6.737367 -3.127152 -0.117420
v 5.097638 -3.817995 0.091575
v 3.853798 -2.848264 0.091575
v 4.391686 -1.365649 0.091575
v 6.432329 -2.105989 1.433220
v 5.542492 -3.284688 1.446041
v 4.348325 -3.276639 1.423052
v 3.782951 -2.192474 1.353984
v 5.188489 -1.136259 1.433220
v 5.143064 -2.477127 1.877844
vt 0.181819 0.000000
vt 0.272728 0.157461
vt 0.090910 0.157461
vt 0.363637 0.000000
vt 0.454546 0.157461
vt 0.909091 0.000000
vt 1.000000 0.157461
vt 0.818182 0.157461
vt 0.727273 0.000000
vt 0.636364 0.157461
vt 0.545455 0.000000
vt 0.363637 0.314921
vt 0.181819 0.314921
vt 0.909091 0.314921
vt 0.727273 0.314921
vt 0.545455 0.314921
vt 0.000000 0.314921
vt 0.272728 0.472382
vt 0.090910 0.472382
vt 0.818182 0.472382
vt 0.636364 0.472382
vt 0.454546 0.472382
vn 0.1477 0.1626 -0.9756
vn -0.0318 0.2742 -0.9611
vn -0.0197 -0.2465 -0.9689
vn -0.1848 -0.2370 -0.9538
vn -0.2825 0.1025 -0.9538
vn -0.1147 0.9883 -0.1008
vn 0.9273 0.3695 -0.0609
vn 0.4024 -0.8891 0.2179
vn -0.6147 -0.7884 -0.0254
vn -0.9161 0.3324 -0.2241
vn 0.5832 0.7480 0.3169
vn 0.7013 -0.5242 0.4831
vn -0.0134 -0.9289 0.3701
vn -0.8765 -0.4455 0.1822
vn -0.5939 0.7738 0.2204
vn 0.2331 0.2990 0.9254
vn 0.3841 -0.2804 0.8797
vn -0.0201 -0.4792 0.8775
vn -0.3813 -0.1407 0.9137
vn -0.2844 0.3104 0.9071
usemtl None
s off
f 121/221/201 122/222/201 123/223/201
f 122/222/202 121/224/202 126/225/202
f 121/226/203 123/227/203 124/228/203
f 121/229/204 124/228/204 125/230/204
f 121/231/205 125/230/205 126/225/205
f 122/222/206 126/225/206 131/232/206
f 123/223/207 122/222/207 127/233/207
f 124/228/208 123/227/208 128/234/208
f 125/230/209 124/228/209 129/235/209
f 126/225/210 125/230/210 130/236/210
f 122/222/211 131/232/211 127/233/211
f 123/223/212 127/233/212 128/237/212
f 124/228/213 128/234/213 129/235/213
f 125/230/214 129/235/214 130/236/214
f 126/225/215 130/236/215 131/232/215
f 127/233/216 131/232/216 132/238/216
f 128/237/217 127/233/217 132/239/217
f 129/235/218 128/234/218 132/240/218
f 130/236/219 129/235/219 132/241/219
f 131/232/220 130/236/220 132/242/220
